<mxfile host="app.diagrams.net" modified="2023-06-19T06:30:23.366Z" agent="Mozilla/5.0 (Windows NT 10.0; Win64; x64) AppleWebKit/537.36 (KHTML, like Gecko) Chrome/114.0.0.0 Safari/537.36 Edg/114.0.1823.51" etag="xeY1qkCSrFfPTXfJFA0V" version="21.5.0" type="github">
  <diagram name="Page-1" id="c37626ed-c26b-45fb-9056-f9ebc6bb27b6">
    <mxGraphModel dx="1174" dy="-31" grid="1" gridSize="10" guides="1" tooltips="1" connect="1" arrows="1" fold="1" page="1" pageScale="1" pageWidth="1100" pageHeight="850" background="none" math="0" shadow="0">
      <root>
        <mxCell id="0" />
        <mxCell id="1" parent="0" />
        <mxCell id="-Dp10Fadvxa0A_ogpggV-3" style="rounded=0;orthogonalLoop=1;jettySize=auto;html=1;exitX=0.5;exitY=1;exitDx=0;exitDy=0;exitPerimeter=0;endArrow=none;endFill=0;" edge="1" parent="1" source="-Dp10Fadvxa0A_ogpggV-16" target="-Dp10Fadvxa0A_ogpggV-2">
          <mxGeometry relative="1" as="geometry">
            <mxPoint x="212" y="1086" as="sourcePoint" />
          </mxGeometry>
        </mxCell>
        <mxCell id="-Dp10Fadvxa0A_ogpggV-9" value="WAN" style="edgeLabel;html=1;align=center;verticalAlign=middle;resizable=0;points=[];" vertex="1" connectable="0" parent="-Dp10Fadvxa0A_ogpggV-3">
          <mxGeometry x="-0.1345" y="4" relative="1" as="geometry">
            <mxPoint as="offset" />
          </mxGeometry>
        </mxCell>
        <mxCell id="-Dp10Fadvxa0A_ogpggV-14" style="edgeStyle=orthogonalEdgeStyle;rounded=0;orthogonalLoop=1;jettySize=auto;html=1;exitX=0.5;exitY=1;exitDx=0;exitDy=0;exitPerimeter=0;entryX=0.5;entryY=0;entryDx=0;entryDy=0;entryPerimeter=0;endArrow=none;endFill=0;" edge="1" parent="1" source="-Dp10Fadvxa0A_ogpggV-2" target="-Dp10Fadvxa0A_ogpggV-13">
          <mxGeometry relative="1" as="geometry" />
        </mxCell>
        <mxCell id="-Dp10Fadvxa0A_ogpggV-15" value="LAN" style="edgeLabel;html=1;align=center;verticalAlign=middle;resizable=0;points=[];" vertex="1" connectable="0" parent="-Dp10Fadvxa0A_ogpggV-14">
          <mxGeometry x="-0.3234" relative="1" as="geometry">
            <mxPoint as="offset" />
          </mxGeometry>
        </mxCell>
        <mxCell id="-Dp10Fadvxa0A_ogpggV-2" value="" style="shape=mxgraph.cisco.routers.service_router;sketch=0;html=1;pointerEvents=1;dashed=0;fillColor=#036897;strokeColor=#ffffff;strokeWidth=2;verticalLabelPosition=bottom;verticalAlign=top;align=center;outlineConnect=0;" vertex="1" parent="1">
          <mxGeometry x="331" y="1210" width="78" height="53" as="geometry" />
        </mxCell>
        <mxCell id="-Dp10Fadvxa0A_ogpggV-7" style="rounded=0;orthogonalLoop=1;jettySize=auto;html=1;entryX=0.5;entryY=0;entryDx=0;entryDy=0;entryPerimeter=0;exitX=0.5;exitY=1;exitDx=0;exitDy=0;exitPerimeter=0;endArrow=none;endFill=0;" edge="1" parent="1" source="-Dp10Fadvxa0A_ogpggV-17" target="-Dp10Fadvxa0A_ogpggV-2">
          <mxGeometry relative="1" as="geometry">
            <mxPoint x="390" y="1110" as="sourcePoint" />
          </mxGeometry>
        </mxCell>
        <mxCell id="-Dp10Fadvxa0A_ogpggV-10" value="WAN" style="edgeLabel;html=1;align=center;verticalAlign=middle;resizable=0;points=[];" vertex="1" connectable="0" parent="-Dp10Fadvxa0A_ogpggV-7">
          <mxGeometry x="-0.2155" y="1" relative="1" as="geometry">
            <mxPoint x="1" as="offset" />
          </mxGeometry>
        </mxCell>
        <mxCell id="-Dp10Fadvxa0A_ogpggV-8" style="rounded=0;orthogonalLoop=1;jettySize=auto;html=1;exitX=0.5;exitY=1;exitDx=0;exitDy=0;exitPerimeter=0;endArrow=none;endFill=0;" edge="1" parent="1" source="-Dp10Fadvxa0A_ogpggV-19" target="-Dp10Fadvxa0A_ogpggV-2">
          <mxGeometry relative="1" as="geometry">
            <mxPoint x="536" y="1086" as="sourcePoint" />
          </mxGeometry>
        </mxCell>
        <mxCell id="-Dp10Fadvxa0A_ogpggV-11" value="WAN" style="edgeLabel;html=1;align=center;verticalAlign=middle;resizable=0;points=[];" vertex="1" connectable="0" parent="-Dp10Fadvxa0A_ogpggV-8">
          <mxGeometry x="-0.1601" y="1" relative="1" as="geometry">
            <mxPoint as="offset" />
          </mxGeometry>
        </mxCell>
        <mxCell id="-Dp10Fadvxa0A_ogpggV-26" style="edgeStyle=orthogonalEdgeStyle;rounded=0;orthogonalLoop=1;jettySize=auto;html=1;exitX=0.5;exitY=1;exitDx=0;exitDy=0;exitPerimeter=0;" edge="1" parent="1" source="-Dp10Fadvxa0A_ogpggV-13" target="-Dp10Fadvxa0A_ogpggV-25">
          <mxGeometry relative="1" as="geometry" />
        </mxCell>
        <mxCell id="-Dp10Fadvxa0A_ogpggV-13" value="" style="shape=mxgraph.cisco.switches.atm_fast_gigabit_etherswitch;sketch=0;html=1;pointerEvents=1;dashed=0;fillColor=#036897;strokeColor=#ffffff;strokeWidth=2;verticalLabelPosition=bottom;verticalAlign=top;align=center;outlineConnect=0;" vertex="1" parent="1">
          <mxGeometry x="338" y="1370" width="64" height="64" as="geometry" />
        </mxCell>
        <mxCell id="-Dp10Fadvxa0A_ogpggV-16" value="光猫1" style="shape=mxgraph.cisco.modems_and_phones.cable_modem;sketch=0;html=1;pointerEvents=1;dashed=0;fillColor=#036897;strokeColor=#ffffff;strokeWidth=2;verticalLabelPosition=bottom;verticalAlign=top;align=center;outlineConnect=0;" vertex="1" parent="1">
          <mxGeometry x="180" y="1040" width="74" height="35" as="geometry" />
        </mxCell>
        <mxCell id="-Dp10Fadvxa0A_ogpggV-17" value="光猫2" style="shape=mxgraph.cisco.modems_and_phones.cable_modem;sketch=0;html=1;pointerEvents=1;dashed=0;fillColor=#036897;strokeColor=#ffffff;strokeWidth=2;verticalLabelPosition=bottom;verticalAlign=top;align=center;outlineConnect=0;" vertex="1" parent="1">
          <mxGeometry x="338" y="1040" width="74" height="35" as="geometry" />
        </mxCell>
        <mxCell id="-Dp10Fadvxa0A_ogpggV-19" value="光猫3" style="shape=mxgraph.cisco.modems_and_phones.cable_modem;sketch=0;html=1;pointerEvents=1;dashed=0;fillColor=#036897;strokeColor=#ffffff;strokeWidth=2;verticalLabelPosition=bottom;verticalAlign=top;align=center;outlineConnect=0;" vertex="1" parent="1">
          <mxGeometry x="502" y="1040" width="74" height="35" as="geometry" />
        </mxCell>
        <mxCell id="-Dp10Fadvxa0A_ogpggV-22" style="rounded=0;orthogonalLoop=1;jettySize=auto;html=1;exitX=0.55;exitY=0.95;exitDx=0;exitDy=0;exitPerimeter=0;endArrow=none;endFill=0;" edge="1" parent="1" source="-Dp10Fadvxa0A_ogpggV-21" target="-Dp10Fadvxa0A_ogpggV-16">
          <mxGeometry relative="1" as="geometry" />
        </mxCell>
        <mxCell id="-Dp10Fadvxa0A_ogpggV-23" style="rounded=0;orthogonalLoop=1;jettySize=auto;html=1;exitX=0.55;exitY=0.95;exitDx=0;exitDy=0;exitPerimeter=0;endArrow=none;endFill=0;" edge="1" parent="1" source="-Dp10Fadvxa0A_ogpggV-21" target="-Dp10Fadvxa0A_ogpggV-17">
          <mxGeometry relative="1" as="geometry" />
        </mxCell>
        <mxCell id="-Dp10Fadvxa0A_ogpggV-24" style="rounded=0;orthogonalLoop=1;jettySize=auto;html=1;exitX=0.55;exitY=0.95;exitDx=0;exitDy=0;exitPerimeter=0;endArrow=none;endFill=0;" edge="1" parent="1" source="-Dp10Fadvxa0A_ogpggV-21" target="-Dp10Fadvxa0A_ogpggV-19">
          <mxGeometry relative="1" as="geometry" />
        </mxCell>
        <mxCell id="-Dp10Fadvxa0A_ogpggV-21" value="Internet" style="ellipse;shape=cloud;whiteSpace=wrap;html=1;" vertex="1" parent="1">
          <mxGeometry x="315" y="880" width="120" height="80" as="geometry" />
        </mxCell>
        <mxCell id="-Dp10Fadvxa0A_ogpggV-25" value="" style="shape=mxgraph.cisco.computers_and_peripherals.pc;sketch=0;html=1;pointerEvents=1;dashed=0;fillColor=#036897;strokeColor=#ffffff;strokeWidth=2;verticalLabelPosition=bottom;verticalAlign=top;align=center;outlineConnect=0;" vertex="1" parent="1">
          <mxGeometry x="331" y="1520" width="78" height="70" as="geometry" />
        </mxCell>
      </root>
    </mxGraphModel>
  </diagram>
</mxfile>
